<mxfile host="app.diagrams.net" modified="2023-01-04T08:37:27.433Z" agent="5.0 (Macintosh; Intel Mac OS X 10_15_7) AppleWebKit/537.36 (KHTML, like Gecko) Chrome/108.0.0.0 Safari/537.36" version="20.8.1" etag="J7Vohj8XGoj8IePRlsns" type="github">
  <diagram id="jnXlP2fREELKoyqUJuKA" name="第 1 页">
    <mxGraphModel dx="1026" dy="693" grid="1" gridSize="10" guides="1" tooltips="1" connect="1" arrows="1" fold="1" page="1" pageScale="1" pageWidth="827" pageHeight="1169" math="0" shadow="0">
      <root>
        <mxCell id="0" />
        <mxCell id="1" parent="0" />
        <mxCell id="lODuhmXB1Oiu2bwegmeS-17" value="" style="rounded=1;whiteSpace=wrap;html=1;fontSize=18;dashed=1;" vertex="1" parent="1">
          <mxGeometry x="20" y="530" width="340" height="160" as="geometry" />
        </mxCell>
        <mxCell id="lODuhmXB1Oiu2bwegmeS-11" value="" style="rounded=1;whiteSpace=wrap;html=1;fontSize=18;" vertex="1" parent="1">
          <mxGeometry x="104.5" y="233" width="517" height="290" as="geometry" />
        </mxCell>
        <mxCell id="lODuhmXB1Oiu2bwegmeS-18" style="edgeStyle=none;rounded=0;orthogonalLoop=1;jettySize=auto;html=1;exitX=0.5;exitY=1;exitDx=0;exitDy=0;entryX=0.5;entryY=0;entryDx=0;entryDy=0;fontSize=18;" edge="1" parent="1" source="lODuhmXB1Oiu2bwegmeS-1" target="lODuhmXB1Oiu2bwegmeS-5">
          <mxGeometry relative="1" as="geometry" />
        </mxCell>
        <mxCell id="lODuhmXB1Oiu2bwegmeS-1" value="Publisher 1" style="rounded=0;whiteSpace=wrap;html=1;fontSize=18;" vertex="1" parent="1">
          <mxGeometry x="60" y="130" width="120" height="50" as="geometry" />
        </mxCell>
        <mxCell id="lODuhmXB1Oiu2bwegmeS-19" style="edgeStyle=none;rounded=0;orthogonalLoop=1;jettySize=auto;html=1;exitX=0.5;exitY=1;exitDx=0;exitDy=0;entryX=0.5;entryY=0;entryDx=0;entryDy=0;fontSize=18;" edge="1" parent="1" source="lODuhmXB1Oiu2bwegmeS-2" target="lODuhmXB1Oiu2bwegmeS-6">
          <mxGeometry relative="1" as="geometry" />
        </mxCell>
        <mxCell id="lODuhmXB1Oiu2bwegmeS-2" value="Publisher 2" style="rounded=0;whiteSpace=wrap;html=1;fontSize=18;" vertex="1" parent="1">
          <mxGeometry x="220" y="130" width="120" height="50" as="geometry" />
        </mxCell>
        <mxCell id="lODuhmXB1Oiu2bwegmeS-20" style="edgeStyle=none;rounded=0;orthogonalLoop=1;jettySize=auto;html=1;exitX=0.5;exitY=1;exitDx=0;exitDy=0;fontSize=18;" edge="1" parent="1" source="lODuhmXB1Oiu2bwegmeS-3">
          <mxGeometry relative="1" as="geometry">
            <mxPoint x="360" y="330" as="targetPoint" />
          </mxGeometry>
        </mxCell>
        <mxCell id="lODuhmXB1Oiu2bwegmeS-3" value="Publisher 3" style="rounded=0;whiteSpace=wrap;html=1;fontSize=18;" vertex="1" parent="1">
          <mxGeometry x="380" y="130" width="120" height="50" as="geometry" />
        </mxCell>
        <mxCell id="lODuhmXB1Oiu2bwegmeS-21" style="edgeStyle=none;rounded=0;orthogonalLoop=1;jettySize=auto;html=1;exitX=0.5;exitY=1;exitDx=0;exitDy=0;entryX=0.45;entryY=0.011;entryDx=0;entryDy=0;entryPerimeter=0;fontSize=18;" edge="1" parent="1" source="lODuhmXB1Oiu2bwegmeS-4" target="lODuhmXB1Oiu2bwegmeS-7">
          <mxGeometry relative="1" as="geometry" />
        </mxCell>
        <mxCell id="lODuhmXB1Oiu2bwegmeS-4" value="Publisher 4" style="rounded=0;whiteSpace=wrap;html=1;fontSize=18;" vertex="1" parent="1">
          <mxGeometry x="540" y="130" width="120" height="50" as="geometry" />
        </mxCell>
        <mxCell id="lODuhmXB1Oiu2bwegmeS-5" value="Kafka Broker" style="rounded=1;whiteSpace=wrap;html=1;fontSize=18;" vertex="1" parent="1">
          <mxGeometry x="133" y="333" width="120" height="90" as="geometry" />
        </mxCell>
        <mxCell id="lODuhmXB1Oiu2bwegmeS-6" value="Kafka Broker" style="rounded=1;whiteSpace=wrap;html=1;fontSize=18;" vertex="1" parent="1">
          <mxGeometry x="303" y="333" width="120" height="90" as="geometry" />
        </mxCell>
        <mxCell id="lODuhmXB1Oiu2bwegmeS-7" value="Kafka Broker" style="rounded=1;whiteSpace=wrap;html=1;fontSize=18;" vertex="1" parent="1">
          <mxGeometry x="473" y="333" width="120" height="90" as="geometry" />
        </mxCell>
        <mxCell id="lODuhmXB1Oiu2bwegmeS-22" style="edgeStyle=none;rounded=0;orthogonalLoop=1;jettySize=auto;html=1;exitX=0.5;exitY=0;exitDx=0;exitDy=0;entryX=0.5;entryY=1;entryDx=0;entryDy=0;fontSize=18;" edge="1" parent="1" source="lODuhmXB1Oiu2bwegmeS-12" target="lODuhmXB1Oiu2bwegmeS-5">
          <mxGeometry relative="1" as="geometry" />
        </mxCell>
        <mxCell id="lODuhmXB1Oiu2bwegmeS-12" value="Subscriber 1" style="rounded=0;whiteSpace=wrap;html=1;fontSize=18;" vertex="1" parent="1">
          <mxGeometry x="60" y="585" width="120" height="50" as="geometry" />
        </mxCell>
        <mxCell id="lODuhmXB1Oiu2bwegmeS-23" style="edgeStyle=none;rounded=0;orthogonalLoop=1;jettySize=auto;html=1;exitX=0.5;exitY=0;exitDx=0;exitDy=0;entryX=0.5;entryY=1;entryDx=0;entryDy=0;fontSize=18;" edge="1" parent="1" source="lODuhmXB1Oiu2bwegmeS-13" target="lODuhmXB1Oiu2bwegmeS-6">
          <mxGeometry relative="1" as="geometry" />
        </mxCell>
        <mxCell id="lODuhmXB1Oiu2bwegmeS-13" value="Subscriber 2" style="rounded=0;whiteSpace=wrap;html=1;fontSize=18;" vertex="1" parent="1">
          <mxGeometry x="220" y="585" width="120" height="50" as="geometry" />
        </mxCell>
        <mxCell id="lODuhmXB1Oiu2bwegmeS-25" style="edgeStyle=none;rounded=0;orthogonalLoop=1;jettySize=auto;html=1;exitX=0.5;exitY=0;exitDx=0;exitDy=0;entryX=0.5;entryY=1;entryDx=0;entryDy=0;fontSize=18;" edge="1" parent="1" source="lODuhmXB1Oiu2bwegmeS-14" target="lODuhmXB1Oiu2bwegmeS-6">
          <mxGeometry relative="1" as="geometry" />
        </mxCell>
        <mxCell id="lODuhmXB1Oiu2bwegmeS-14" value="Subscriber 3" style="rounded=0;whiteSpace=wrap;html=1;fontSize=18;" vertex="1" parent="1">
          <mxGeometry x="380" y="585" width="120" height="50" as="geometry" />
        </mxCell>
        <mxCell id="lODuhmXB1Oiu2bwegmeS-24" style="edgeStyle=none;rounded=0;orthogonalLoop=1;jettySize=auto;html=1;exitX=0.5;exitY=0;exitDx=0;exitDy=0;entryX=0.5;entryY=1;entryDx=0;entryDy=0;fontSize=18;" edge="1" parent="1" source="lODuhmXB1Oiu2bwegmeS-15" target="lODuhmXB1Oiu2bwegmeS-7">
          <mxGeometry relative="1" as="geometry" />
        </mxCell>
        <mxCell id="lODuhmXB1Oiu2bwegmeS-15" value="Subscriber 4" style="rounded=0;whiteSpace=wrap;html=1;fontSize=18;" vertex="1" parent="1">
          <mxGeometry x="540" y="585" width="120" height="50" as="geometry" />
        </mxCell>
        <mxCell id="lODuhmXB1Oiu2bwegmeS-26" value="push" style="text;html=1;strokeColor=none;fillColor=none;align=center;verticalAlign=middle;whiteSpace=wrap;rounded=0;dashed=1;fontSize=18;" vertex="1" parent="1">
          <mxGeometry x="133" y="200" width="60" height="30" as="geometry" />
        </mxCell>
        <mxCell id="lODuhmXB1Oiu2bwegmeS-27" value="push" style="text;html=1;strokeColor=none;fillColor=none;align=center;verticalAlign=middle;whiteSpace=wrap;rounded=0;dashed=1;fontSize=18;" vertex="1" parent="1">
          <mxGeometry x="320" y="200" width="60" height="30" as="geometry" />
        </mxCell>
        <mxCell id="lODuhmXB1Oiu2bwegmeS-28" value="push" style="text;html=1;strokeColor=none;fillColor=none;align=center;verticalAlign=middle;whiteSpace=wrap;rounded=0;dashed=1;fontSize=18;" vertex="1" parent="1">
          <mxGeometry x="503" y="200" width="60" height="30" as="geometry" />
        </mxCell>
        <mxCell id="lODuhmXB1Oiu2bwegmeS-29" value="pull" style="text;html=1;strokeColor=none;fillColor=none;align=center;verticalAlign=middle;whiteSpace=wrap;rounded=0;dashed=1;fontSize=18;" vertex="1" parent="1">
          <mxGeometry x="133" y="550" width="60" height="30" as="geometry" />
        </mxCell>
        <mxCell id="lODuhmXB1Oiu2bwegmeS-30" value="pull" style="text;html=1;strokeColor=none;fillColor=none;align=center;verticalAlign=middle;whiteSpace=wrap;rounded=0;dashed=1;fontSize=18;" vertex="1" parent="1">
          <mxGeometry x="333" y="550" width="60" height="30" as="geometry" />
        </mxCell>
        <mxCell id="lODuhmXB1Oiu2bwegmeS-31" value="pull" style="text;html=1;strokeColor=none;fillColor=none;align=center;verticalAlign=middle;whiteSpace=wrap;rounded=0;dashed=1;fontSize=18;" vertex="1" parent="1">
          <mxGeometry x="510" y="550" width="60" height="30" as="geometry" />
        </mxCell>
      </root>
    </mxGraphModel>
  </diagram>
</mxfile>
